<svg width="19" height="22" viewBox="0 0 26 29" fill="none" xmlns="http://www.w3.org/2000/svg">
<path d="M4.94023 28.8338C4.06608 28.8338 3.31775 28.5291 2.69525 27.9199C2.07274 27.3106 1.76149 26.5782 1.76149 25.7227V5.50044C1.31117 5.50044 0.933693 5.35136 0.629064 5.05322C0.324434 4.75507 0.172119 4.38562 0.172119 3.94488C0.172119 3.50414 0.324434 3.1347 0.629064 2.83655C0.933693 2.5384 1.31117 2.38933 1.76149 2.38933H8.11898C8.11898 1.94859 8.27129 1.57914 8.57592 1.28099C8.88055 0.982845 9.25803 0.833771 9.70835 0.833771H16.0658C16.5162 0.833771 16.8936 0.982845 17.1983 1.28099C17.5029 1.57914 17.6552 1.94859 17.6552 2.38933H24.0127C24.463 2.38933 24.8405 2.5384 25.1451 2.83655C25.4498 3.1347 25.6021 3.50414 25.6021 3.94488C25.6021 4.38562 25.4498 4.75507 25.1451 5.05322C24.8405 5.35136 24.463 5.50044 24.0127 5.50044V25.7227C24.0127 26.5782 23.7014 27.3106 23.0789 27.9199C22.4564 28.5291 21.7081 28.8338 20.834 28.8338H4.94023ZM20.834 5.50044H4.94023V25.7227H20.834V5.50044ZM12.8871 17.7893L15.9069 20.7449C16.1983 21.0301 16.5691 21.1727 17.0195 21.1727C17.4698 21.1727 17.8406 21.0301 18.132 20.7449C18.4234 20.4597 18.5691 20.0967 18.5691 19.656C18.5691 19.2153 18.4234 18.8523 18.132 18.5671L15.1122 15.6115L18.132 12.656C18.4234 12.3708 18.5691 12.0078 18.5691 11.5671C18.5691 11.1264 18.4234 10.7634 18.132 10.4782C17.8406 10.193 17.4698 10.0504 17.0195 10.0504C16.5691 10.0504 16.1983 10.193 15.9069 10.4782L12.8871 13.4338L9.86729 10.4782C9.5759 10.193 9.20505 10.0504 8.75473 10.0504C8.30441 10.0504 7.93355 10.193 7.64217 10.4782C7.35078 10.7634 7.20509 11.1264 7.20509 11.5671C7.20509 12.0078 7.35078 12.3708 7.64217 12.656L10.662 15.6115L7.64217 18.5671C7.35078 18.8523 7.20509 19.2153 7.20509 19.656C7.20509 20.0967 7.35078 20.4597 7.64217 20.7449C7.93355 21.0301 8.30441 21.1727 8.75473 21.1727C9.20505 21.1727 9.5759 21.0301 9.86729 20.7449L12.8871 17.7893Z" fill="white"/>
</svg>
