<svg width="19" height="22" viewBox="0 0 27 29" fill="none" xmlns="http://www.w3.org/2000/svg">
<path d="M3.14889 28.8338C2.44851 28.8338 1.84894 28.5844 1.35019 28.0856C0.851429 27.5869 0.602051 26.9873 0.602051 26.2869C0.602051 25.5865 0.851429 24.987 1.35019 24.4882C1.84894 23.9895 2.44851 23.7401 3.14889 23.7401H23.5236C24.224 23.7401 24.8236 23.9895 25.3224 24.4882C25.8211 24.987 26.0705 25.5865 26.0705 26.2869C26.0705 26.9873 25.8211 27.5869 25.3224 28.0856C24.8236 28.5844 24.224 28.8338 23.5236 28.8338H3.14889ZM4.42232 21.1932C4.06151 21.1932 3.75908 21.0712 3.515 20.8271C3.27093 20.5831 3.14889 20.2806 3.14889 19.9198V16.9591C3.14889 16.7893 3.18073 16.6248 3.2444 16.4657C3.30807 16.3065 3.40358 16.1632 3.53092 16.0359L14.6734 4.89344L19.4487 9.66877L8.30625 20.8112C8.17891 20.9386 8.03565 21.0341 7.87647 21.0977C7.7173 21.1614 7.55281 21.1932 7.38302 21.1932H4.42232ZM5.69574 18.6464H6.84182L15.8831 9.66877L14.6734 8.45902L5.69574 17.5003V18.6464ZM20.8813 8.26801L16.106 3.49268L18.3981 1.20052C18.6316 0.945832 18.9287 0.823796 19.2895 0.834407C19.6503 0.845019 19.9475 0.967056 20.1809 1.20052L23.1735 4.19306C23.4069 4.42652 23.5236 4.71834 23.5236 5.06853C23.5236 5.41873 23.4069 5.72116 23.1735 5.97585L20.8813 8.26801Z" fill="white"/>
</svg>
